<svg width="20.999817" height="21.000000" viewBox="0 0 20.9998 21" fill="none" xmlns="http://www.w3.org/2000/svg" xmlns:xlink="http://www.w3.org/1999/xlink">
	<desc>
			Created with Pixso.
	</desc>
	<defs/>
	<path id="Vector" d="M20.8732 6.22693L18.6376 4.87512L18.6376 0.283447C18.6376 0.138306 18.5201 0.0209961 18.3751 0.0209961L15.0608 0.0209961C14.916 0.0209961 14.7985 0.138306 14.7985 0.283447L14.7985 2.55396L10.6366 0.0377197C10.6102 0.0219727 10.5811 0.0117188 10.5513 0.00695801C10.4844 -0.00866699 10.4143 0.00231934 10.3554 0.0377197L0.126587 6.22693C0.0480347 6.27417 0 6.35974 0 6.45142L0 8.61694C0 8.71106 0.050293 8.79797 0.131775 8.84473C0.213501 8.8916 0.313843 8.89111 0.394958 8.84375L1.93542 7.94312L1.93542 18.5219L1.20245 18.5219C1.05743 18.5219 0.940063 18.6392 0.940063 18.7843L0.940063 20.7374C0.940063 20.8824 1.05743 21 1.20245 21L19.7974 21C19.9424 21 20.0599 20.8824 20.0599 20.7374L20.0599 18.7843C20.0599 18.6392 19.9424 18.5219 19.7974 18.5219L19.0644 18.5219L19.0644 7.94373L20.6051 8.84375C20.6459 8.86755 20.6916 8.87952 20.7375 8.87952C20.7825 8.87952 20.8276 8.86792 20.868 8.84473C20.9498 8.79797 20.9998 8.71106 20.9998 8.61694L20.9998 6.45142C20.9998 6.35974 20.9518 6.27417 20.8732 6.22693ZM15.3234 0.545898L18.1125 0.545898L18.1125 4.55774L15.3234 2.87146L15.3234 0.545898ZM19.5349 20.4749L1.46497 20.4749L1.46497 19.0468L19.5349 19.0468L19.5349 20.4749ZM12.8624 18.5219L8.13739 18.5219L8.13739 10.3231L12.8624 10.3231L12.8624 18.5219ZM18.5395 18.5219L13.3875 18.5219L13.3875 10.0605C13.3875 9.91528 13.27 9.79797 13.1249 9.79797L7.87488 9.79797C7.73004 9.79797 7.61249 9.91528 7.61249 10.0605L7.61249 18.5219L2.46033 18.5219L2.46033 7.63611L10.496 2.93774L18.5395 7.63684L18.5395 18.5219ZM20.4749 8.15979L10.6284 2.40698C10.5875 2.38318 10.5417 2.37109 10.496 2.37109C10.4501 2.37109 10.4045 2.38318 10.3634 2.40698L0.524902 8.15942L0.524902 6.59924L10.496 0.566528L20.4749 6.59924L20.4749 8.15979Z" fill="#31353B" fill-opacity="1.000000" fill-rule="nonzero"/>
</svg>
