<svg width="71.000000" height="23.000000" viewBox="0 0 71 23" fill="none" xmlns="http://www.w3.org/2000/svg" xmlns:xlink="http://www.w3.org/1999/xlink">
	<desc>
			Created with Pixso.
	</desc>
	<defs/>
	<path id="Vector" d="M14.6815 11.0021C15.8617 11.0969 16.853 11.5712 17.7028 12.4722C18.5526 13.3732 18.9774 14.6062 18.9774 16.1711C18.9774 18.068 18.3637 19.6329 17.0891 20.7711C15.8145 21.9093 14.0206 22.4784 11.613 22.4784L0 22.4784L0 0L11.5658 0C13.5958 0 15.248 0.569092 16.4754 1.65979C17.7028 2.79797 18.3165 4.26807 18.3165 6.11755C18.3165 7.54016 17.9388 8.63098 17.1363 9.4845C16.3338 10.3381 15.5312 10.7649 14.6343 10.8597L14.6815 11.0021ZM5.52325 9.2948L10.3384 9.2948C11.1409 9.2948 11.8019 9.05774 12.3212 8.5835C12.7932 8.10925 13.0765 7.54016 13.0765 6.73401C13.0765 6.02271 12.8405 5.50098 12.3683 5.07422C11.8963 4.64746 11.2826 4.45776 10.5745 4.45776L5.52325 4.45776L5.52325 9.2948ZM10.6217 18.0206C11.4714 18.0206 12.1795 17.7834 12.6516 17.3567C13.1237 16.9299 13.3597 16.3134 13.3597 15.5072C13.3597 14.7484 13.1237 14.1793 12.6044 13.7526C12.1323 13.3258 11.4714 13.0886 10.7161 13.0886L5.52325 13.0886L5.52325 18.0206L10.6217 18.0206ZM38.0964 22.4784L32.762 22.4784L32.762 20.866C31.4402 22.2887 29.6935 23 27.6163 23C25.6337 23 24.0758 22.3361 22.8956 21.0557C21.7154 19.7753 21.1017 18.068 21.1017 15.9814L21.1017 5.64331L26.389 5.64331L26.389 14.8433C26.389 15.8392 26.6722 16.6454 27.1915 17.2618C27.7108 17.8783 28.4189 18.1628 29.2686 18.1628C30.3544 18.1628 31.2041 17.7834 31.8178 17.0248C32.4315 16.266 32.7148 15.0804 32.7148 13.468L32.7148 5.64331L38.0492 5.64331L38.0964 22.4784ZM54.5718 22.4784L40.4095 22.4784L40.4095 21.4824L47.0658 9.91138L40.5984 9.91138L40.5984 5.64331L54.4774 5.64331L54.4774 6.63916L47.8212 18.2103L54.5246 18.2103L54.5246 22.4784L54.5718 22.4784ZM71 22.4784L56.8849 22.4784L56.8849 21.4824L63.494 9.91138L57.0266 9.91138L57.0266 5.64331L70.9056 5.64331L70.9056 6.63916L64.2493 18.2103L70.9528 18.2103L71 22.4784Z" fill="#718087" fill-opacity="1.000000" fill-rule="nonzero"/>
</svg>
