<svg width="97.422394" height="18.128296" viewBox="0 0 97.4224 18.1283" fill="none" xmlns="http://www.w3.org/2000/svg" xmlns:xlink="http://www.w3.org/1999/xlink">
	<desc>
			Created with Pixso.
	</desc>
	<defs/>
	<path id="H" d="M32.919 0.0130615L32.919 7.19873L22.9079 7.19873L22.9079 0.0130615L19.2617 0.00976562L19.2617 18.1282L22.9079 18.1282L22.9079 10.3445L32.919 10.3445L32.919 18.1282L36.5711 18.1282L36.5711 0.0130615L32.919 0.0130615Z" fill="#718087" fill-opacity="1.000000" fill-rule="nonzero"/>
	<path id="E" d="M81.4258 0.0136719L81.4258 18.1245L97.4224 18.1245L95.3964 14.9362L85.0823 14.9362L85.0823 10.3451L95.0695 10.3451L95.0695 7.27417L85.0823 7.27417L85.0823 3.12744L95.3791 3.12744L97.364 0.0136719L81.4258 0.0136719Z" fill="#718087" fill-opacity="1.000000" fill-rule="nonzero"/>
	<path id="C" d="M5.7085 0.00878906C1.91565 0.00878906 0 2.31458 0 5.66968L0 12.4329C0 16.3154 2.46869 18.1283 5.68954 18.1283L17.1292 18.1272L15.0085 14.8154L6.39627 14.8154C4.56668 14.8154 3.76959 14.1542 3.76959 12.1064L3.76959 5.97058C3.76959 3.99109 4.44058 3.21887 6.44498 3.21887L15.0983 3.21887L17.1346 0.00878906L5.7085 0.00878906Z" fill="#718087" fill-opacity="1.000000" fill-rule="nonzero"/>
	<path id="S" d="M65.4234 0.00427246C63.2329 0.00427246 60.9877 1.32092 60.9877 4.7074L60.9877 5.57751C60.9877 9.10791 63.1479 10.4548 65.3092 10.464L72.8955 10.464C73.6833 10.464 74.3235 10.595 74.3235 11.9268L74.3224 13.4652C74.3024 14.6616 73.7055 14.9354 72.8684 14.9354L62.8882 14.9354L60.8438 18.1238L73.1032 18.1238C76.0595 18.1238 78.0666 16.6531 78.0666 13.2557L78.0666 12.0073C78.0666 8.72266 76.2018 7.17065 73.3105 7.17065L66.0668 7.17065C65.2638 7.17065 64.7043 6.95142 64.7043 5.76208L64.7043 4.50928C64.7043 3.49634 65.0879 3.12671 66.0235 3.12671L75.5281 3.12292L77.5146 0L65.4234 0.00427246Z" fill="#718087" fill-opacity="1.000000" fill-rule="nonzero"/>
	<path id="A" d="M47.1648 0.0136719L38.5742 18.1278L42.6344 18.1278L44.3076 14.3868L53.6428 14.3868L55.3106 18.1278L59.3886 18.1278L50.778 0.0136719L47.1648 0.0136719ZM48.9662 3.77454L52.2672 11.3035L45.6864 11.3035L48.9662 3.77454Z" fill="#718087" fill-opacity="1.000000" fill-rule="nonzero"/>
</svg>
