<svg width="94.178558" height="20.105835" viewBox="0 0 94.1786 20.1058" fill="none" xmlns="http://www.w3.org/2000/svg" xmlns:xlink="http://www.w3.org/1999/xlink">
	<desc>
			Created with Pixso.
	</desc>
	<defs/>
	<path id="Vector" d="M9.55371 9.55371L0 9.55371L0 0L9.55371 0L9.55371 9.55371ZM10.5486 9.55371L20.1023 9.55371L20.1023 0L10.5486 0L10.5486 9.55371ZM94.1781 9.09607L94.1781 7.43958L92.1214 7.43958L92.1214 4.8645L92.0523 4.88599L90.0826 5.48865L90.0826 7.43958L87.0332 7.43958L87.0332 6.35205C87.0039 5.94019 87.1232 5.53162 87.3693 5.2002C87.4879 5.07007 87.634 4.96802 87.797 4.90137C87.96 4.83472 88.1358 4.8053 88.3116 4.81506C88.6205 4.81921 88.9251 4.88843 89.2054 5.01831L89.2811 5.05225L89.2811 3.30933L89.2455 3.29639C88.8758 3.1825 88.4897 3.13098 88.103 3.14392C87.5387 3.13501 86.9814 3.26892 86.4827 3.53308C86.0143 3.78516 85.6284 4.16675 85.371 4.63232C85.1036 5.1272 84.968 5.68262 84.9774 6.245L84.9774 7.43958L83.5452 7.43958L83.5452 9.09607L84.9774 9.09607L84.9774 16.0734L87.0332 16.0734L87.0332 9.09607L90.0826 9.09607L90.0826 13.5286C90.0826 15.3561 90.9438 16.2802 92.643 16.2802C92.9365 16.2784 93.229 16.2461 93.5157 16.1835C93.7359 16.146 93.9498 16.0782 94.1514 15.9819L94.1786 15.9659L94.1786 14.2943L94.0948 14.3496C93.9672 14.4303 93.8278 14.4905 93.6815 14.528C93.5498 14.5687 93.4133 14.5919 93.2755 14.597C93.1152 14.611 92.9538 14.5897 92.8026 14.5347C92.6515 14.4796 92.5142 14.3921 92.4005 14.2783C92.184 13.9521 92.0856 13.5618 92.1214 13.172L92.1214 9.09607L94.1781 9.09607ZM42.1646 3.76135L42.1632 3.76135L42.1624 3.76123C41.8414 3.75671 41.5315 3.87854 41.2994 4.10059C41.1824 4.20789 41.0896 4.33899 41.0271 4.48499C40.9646 4.63098 40.9339 4.7887 40.9371 4.94751C40.9335 5.10339 40.9635 5.25818 41.0251 5.40149C41.0866 5.54468 41.1782 5.6731 41.2937 5.77783C41.5293 5.99695 41.8412 6.1156 42.1629 6.10864C42.4855 6.11511 42.7981 5.9967 43.0356 5.77832C43.1526 5.67432 43.2457 5.54614 43.3084 5.40271C43.3711 5.25928 43.402 5.104 43.3989 4.94751C43.4006 4.79102 43.3701 4.63599 43.3092 4.49194C43.2484 4.3479 43.1587 4.21777 43.0454 4.10986C42.9293 3.99536 42.7912 3.9054 42.6395 3.84546C42.4884 3.78589 42.327 3.7572 42.1646 3.76135ZM37.0952 6.80225L37.0952 16.0737L39.1679 16.0737L39.1679 4.02612L36.2995 4.02612L32.6533 12.9745L29.1149 4.02612L26.1284 4.02612L26.1284 16.0729L28.0764 16.0729L28.0764 6.80127L28.1432 6.80127L31.8795 16.0729L33.3504 16.0729L37.0287 6.80127L37.0952 6.80225ZM79.0445 7.22839C78.4294 7.19458 77.8138 7.28711 77.2359 7.50037C76.6579 7.71362 76.1297 8.04309 75.684 8.46838C75.2671 8.92371 74.945 9.45752 74.7365 10.0386C74.528 10.6196 74.4374 11.2365 74.4698 11.853C74.4403 12.4436 74.53 13.0341 74.7336 13.5892C74.9373 14.1444 75.2506 14.6528 75.655 15.0842C76.0764 15.4889 76.5758 15.8033 77.1228 16.0087C77.6698 16.2139 78.2528 16.3055 78.8363 16.278C79.4425 16.3077 80.0483 16.2114 80.6153 15.995C81.1823 15.7787 81.6982 15.4469 82.1304 15.0209C82.5439 14.5701 82.8641 14.0419 83.0725 13.4667C83.2809 12.8916 83.3734 12.2809 83.3447 11.6698C83.4094 10.4773 83 9.30762 82.2058 8.41577C81.7898 8.00989 81.2939 7.69482 80.7498 7.4906C80.2056 7.2865 79.6249 7.19763 79.0445 7.22974L79.0445 7.22839ZM62.5781 7.23059C61.963 7.19666 61.3474 7.28931 60.7694 7.50256C60.1915 7.71582 59.6633 8.04529 59.2176 8.4707C58.8006 8.9259 58.4784 9.45959 58.2699 10.0408C58.0613 10.6218 57.9706 11.2386 58.003 11.8552C57.9734 12.4458 58.0632 13.0364 58.2669 13.5916C58.4706 14.1467 58.7841 14.6552 59.1887 15.0864C59.61 15.4911 60.1094 15.8057 60.6564 16.0109C61.2034 16.2161 61.7864 16.3077 62.37 16.2802C62.9761 16.3099 63.5819 16.2136 64.1489 15.9972C64.7159 15.7809 65.2318 15.4492 65.664 15.0232C66.0775 14.5723 66.3977 14.0441 66.6061 13.469C66.8145 12.8938 66.907 12.2831 66.8783 11.672C66.943 10.4795 66.5334 9.30969 65.7389 8.41809C65.323 8.01221 64.8272 7.69714 64.2831 7.49292C63.739 7.28882 63.1584 7.19995 62.5781 7.23193L62.5781 7.23059ZM71.1548 7.22974C70.2999 7.19348 69.4586 7.45349 68.7731 7.96558C68.4784 8.18945 68.2407 8.47961 68.0794 8.81274C67.9181 9.14587 67.8378 9.51233 67.8451 9.88232C67.838 10.2489 67.9061 10.6129 68.0452 10.9521C68.1833 11.2645 68.3939 11.5396 68.6595 11.7545C69.0423 12.0422 69.4621 12.2773 69.9076 12.4534C70.2637 12.5933 70.6108 12.7549 70.9471 12.9375C71.124 13.0298 71.2798 13.1577 71.4048 13.3132C71.4964 13.4598 71.5407 13.631 71.5319 13.8036C71.5319 14.3831 71.0977 14.6656 70.2036 14.6656C69.8205 14.6565 69.4413 14.5872 69.0798 14.4602C68.6685 14.3258 68.2804 14.129 67.9289 13.8767L67.8433 13.8157L67.8433 15.7952L67.8745 15.8099C68.2241 15.9625 68.5896 16.0754 68.9644 16.1465C69.3469 16.2299 69.7368 16.2747 70.1282 16.2802C71.0262 16.327 71.9134 16.0658 72.6427 15.5398C72.9423 15.3098 73.1833 15.0123 73.346 14.6714C73.5087 14.3306 73.5885 13.9561 73.5788 13.5785C73.5935 13.0397 73.4149 12.5134 73.0751 12.095C72.5993 11.601 72.0127 11.2274 71.3638 11.0051C70.9269 10.8589 70.5155 10.645 70.1447 10.3713C70.0602 10.2833 69.9947 10.1788 69.9523 10.0645C69.91 9.95007 69.8917 9.82812 69.8987 9.7063C69.8969 9.58606 69.9243 9.46729 69.9787 9.36023C70.0331 9.25305 70.1127 9.16064 70.2107 9.09119C70.4668 8.91394 70.7747 8.82703 71.0857 8.84424C71.4389 8.84583 71.7899 8.89978 72.1274 9.00415C72.4501 9.09827 72.7568 9.24048 73.0372 9.4259L73.121 9.4834L73.121 7.60815L73.0889 7.59436C72.7911 7.47571 72.4815 7.38928 72.1653 7.33667C71.8316 7.27124 71.4926 7.23621 71.1526 7.23193L71.1548 7.22974ZM49.2146 7.23145C48.3542 7.21411 47.5037 7.41858 46.7451 7.8252C46.0476 8.20911 45.4805 8.79236 45.1164 9.50037C44.7326 10.2701 44.5407 11.1213 44.557 11.9813C44.5469 12.7568 44.734 13.5222 45.1008 14.2057C45.4489 14.8534 45.9765 15.3868 46.6204 15.7422C47.3021 16.1091 48.0665 16.2949 48.8406 16.282C49.694 16.3093 50.5396 16.1115 51.2922 15.7083L51.319 15.6931L51.319 13.8322L51.2334 13.8945C50.9295 14.115 50.5947 14.2893 50.2398 14.412C49.9282 14.5283 49.5993 14.592 49.2668 14.6006C48.9156 14.6177 48.5648 14.5605 48.2372 14.4329C47.9096 14.3052 47.6126 14.11 47.3656 13.8597C46.8734 13.2928 46.6219 12.5562 46.6645 11.8066C46.6271 11.0361 46.8891 10.281 47.3955 9.6991C47.6384 9.43958 47.9341 9.23511 48.2626 9.09949C48.5912 8.96387 48.9449 8.90015 49.3002 8.91284C50.0001 8.92383 50.6779 9.15967 51.2334 9.58545L51.3185 9.64746L51.3185 7.68616L51.2909 7.67053C50.9952 7.51855 50.6785 7.4115 50.3513 7.35266C49.9779 7.27368 49.5975 7.23291 49.2159 7.23108L49.2146 7.23145ZM54.8823 8.93506L54.8823 7.43958L52.8515 7.43958L52.8515 16.0734L54.8823 16.0734L54.8823 11.6564C54.8532 11.007 55.0305 10.3651 55.3886 9.82263C55.5323 9.60632 55.7279 9.42944 55.9575 9.30835C56.1872 9.18713 56.4435 9.12549 56.7032 9.12903C56.9097 9.1322 57.115 9.16211 57.3138 9.21814C57.4812 9.25537 57.6412 9.32019 57.7872 9.40979L57.8728 9.4718L57.8728 7.42493L57.8398 7.41064C57.585 7.31958 57.315 7.27856 57.0446 7.28992C56.5483 7.28503 56.0666 7.45764 55.6864 7.77661C55.3305 8.08923 55.0614 8.4884 54.905 8.93555L54.8823 8.93506ZM43.1591 7.43921L41.1283 7.43921L41.1283 16.0734L43.1591 16.0734L43.1591 7.43921ZM78.9531 14.5984C78.6251 14.6155 78.2973 14.5582 77.9945 14.431C77.6916 14.3037 77.4214 14.1096 77.204 13.8633C76.7531 13.2689 76.5302 12.5326 76.5755 11.788C76.5277 11.0259 76.7503 10.2714 77.204 9.65723C77.4168 9.40906 77.6835 9.21277 77.9837 9.08337C78.2839 8.95398 78.6097 8.8949 78.9362 8.91064C79.2528 8.89539 79.5688 8.95154 79.8608 9.07507C80.1528 9.19849 80.4132 9.38611 80.6229 9.62378C81.0733 10.2324 81.2917 10.9818 81.2389 11.7371C81.2909 12.4951 81.0869 13.2485 80.6595 13.8767C80.451 14.1216 80.1881 14.3143 79.8918 14.4395C79.5955 14.5646 79.2741 14.6196 78.9531 14.5984ZM62.4859 14.5984C62.1578 14.6155 61.8301 14.5582 61.5272 14.431C61.2243 14.3037 60.9541 14.1096 60.7368 13.8633C60.2865 13.2694 60.0638 12.5341 60.1087 11.7902C60.0609 11.0281 60.2834 10.2736 60.7372 9.65942C60.9499 9.41125 61.2166 9.21497 61.5168 9.08557C61.817 8.95618 62.1428 8.89709 62.4694 8.91284C62.786 8.89758 63.102 8.95386 63.394 9.07727C63.6859 9.20068 63.9464 9.38831 64.1561 9.62598C64.6065 10.2346 64.8249 10.984 64.7721 11.7394C64.8241 12.4973 64.62 13.2507 64.1926 13.8789C63.9842 14.1238 63.7213 14.3165 63.425 14.4418C63.1287 14.5669 62.8072 14.621 62.4863 14.5997L62.4859 14.5984ZM9.55371 20.1058L0 20.1058L0 10.5521L9.55371 10.5521L9.55371 20.1058ZM10.5486 20.1058L20.1023 20.1058L20.1023 10.5521L10.5486 10.5521L10.5486 20.1058Z" fill="#718087" fill-opacity="1.000000" fill-rule="evenodd"/>
</svg>
