<svg width="96.000000" height="23.000000" viewBox="0 0 96 23" fill="none" xmlns="http://www.w3.org/2000/svg" xmlns:xlink="http://www.w3.org/1999/xlink">
	<desc>
			Created with Pixso.
	</desc>
	<defs/>
	<g opacity="0.800000">
		<path id="Vector" d="M21.3835 15.3632L21.3835 20.3217C19.581 21.9067 15.2739 22.8496 12.0672 22.8496C8.86464 22.8496 0 20.8662 0 11.5468C0 2.22729 8.43762 0.219482 11.8414 0.219482C15.2493 0.219482 18.8789 0.83728 20.9811 2.22729L20.9811 6.58826C20.9811 7.13293 20.2298 7.08411 20.2298 6.58826C20.1805 5.84448 18.1768 1.38599 13.1676 1.48352C7.76015 1.59326 4.1059 5.7998 4.1059 11.3475C4.1059 16.8954 7.6575 21.6588 13.0198 21.5084C14.7607 21.4596 16.5755 20.915 17.4542 20.1915L17.4747 15.3632C17.4747 13.9772 16.6248 13.4813 15.7749 13.4813C15.2206 13.4813 15.2206 12.6888 15.7749 12.6888L23.0834 12.6888C23.6335 12.6888 23.6335 13.5302 23.0834 13.4813C22.2375 13.4813 21.3835 13.9772 21.3835 15.3632ZM70.6584 6.59229C70.6584 7.13696 70.1082 7.08813 70.1082 6.59229C70.0548 5.84851 68.0553 1.23962 63.0461 1.34119C57.6386 1.4469 53.9802 5.80383 53.9802 11.3517C53.9802 16.8994 57.4867 21.8092 62.8449 21.6628C68.2031 21.5125 70.7569 16.2614 70.9581 15.5664C71.1593 14.8713 71.5083 14.973 71.5083 15.5176L71.5083 19.5819C69.3076 21.167 65.1483 22.8536 61.9457 22.8536C58.7431 22.8536 49.8784 20.8702 49.8784 11.5508C49.8784 2.22729 58.2914 0 61.6952 0C65.1031 0 68.5562 0.841309 70.6625 2.22729L70.6625 6.59229L70.6584 6.59229ZM47.9733 0.544678C48.774 0.544678 48.774 1.28833 47.9733 1.28833C47.1234 1.28833 46.2735 1.78418 46.2735 3.17017L46.1749 14.0016C46.1749 19.1876 41.9253 23 36.6821 23C31.4389 23 27.3453 19.1876 27.3453 14.0016L27.3453 3.17017C27.3453 1.78015 26.4913 1.28833 25.6413 1.28833C24.8407 1.28833 24.8407 0.544678 25.6413 0.544678L33.0525 0.544678C33.8531 0.544678 33.8531 1.28833 33.0525 1.28833C32.1985 1.28833 31.3485 1.78418 31.3485 3.17017L31.3403 15.2656C31.3403 18.9235 34.3623 21.8904 38.0576 21.8904C41.7529 21.8904 44.7502 18.1797 44.7502 14.5259L44.5695 3.17017C44.5695 1.78015 43.7196 1.28833 42.8656 1.28833C42.069 1.28833 42.069 0.544678 42.8656 0.544678L47.9733 0.544678ZM95.146 6.59229C95.146 7.13696 94.5958 7.08813 94.5958 6.59229C94.5465 5.84851 92.5428 1.23962 87.5336 1.34119C82.1262 1.4469 78.4678 5.80383 78.4678 11.3517C78.4678 16.8994 81.9743 21.8092 87.3325 21.6628C92.6907 21.5165 95.2445 16.2614 95.4457 15.5664C95.6469 14.8713 96 14.973 96 15.5176L96 19.5819C93.7951 21.167 89.64 22.8536 86.4333 22.8536C83.2307 22.8536 74.366 20.8702 74.366 11.5508C74.366 2.22729 82.779 0 86.1869 0C89.5907 0 93.0479 0.841309 95.1501 2.22729L95.1501 6.59229L95.146 6.59229Z" fill="#718087" fill-opacity="1.000000" fill-rule="nonzero"/>
	</g>
</svg>
