<svg width="85.000000" height="26.686035" viewBox="0 0 85 26.686" fill="none" xmlns="http://www.w3.org/2000/svg" xmlns:xlink="http://www.w3.org/1999/xlink">
	<desc>
			Created with Pixso.
	</desc>
	<defs/>
	<path id="Vector" d="M44.7977 6.70532C44.7977 7.66699 44.0274 8.44141 43.0713 8.44141C42.1153 8.44141 41.3454 7.66699 41.3454 6.70532C41.3454 5.74353 42.089 4.96912 43.0713 4.96912C44.0544 4.99585 44.7977 5.77051 44.7977 6.70532ZM37.681 10.2048L37.681 10.6323C37.681 10.6323 36.8581 9.56323 35.1055 9.56323C32.2113 9.56323 29.9539 11.7806 29.9539 14.8524C29.9539 17.8977 32.1848 20.1415 35.1055 20.1415C36.8846 20.1415 37.681 19.0463 37.681 19.0463L37.681 19.5001C37.681 19.714 37.8407 19.8738 38.0529 19.8738L40.2035 19.8738L40.2035 9.82959L38.0529 9.82959C37.8407 9.83044 37.681 10.0177 37.681 10.2048ZM37.681 16.6422C37.2831 17.23 36.4862 17.7375 35.5304 17.7375C33.8311 17.7375 32.5297 16.6691 32.5297 14.8524C32.5297 13.0359 33.8311 11.9674 35.5304 11.9674C36.4599 11.9674 37.3096 12.5016 37.681 13.0625L37.681 16.6422ZM41.7969 9.83044L44.3459 9.83044L44.3459 19.8745L41.7969 19.8745L41.7969 9.83044ZM79.8755 9.56299C78.1228 9.56299 77.2994 10.6321 77.2994 10.6321L77.2994 4.99585L74.7504 4.99585L74.7504 19.8745L76.9015 19.8745C77.114 19.8745 77.2729 19.6875 77.2729 19.5005L77.2729 19.0465C77.2729 19.0465 78.0963 20.1417 79.8484 20.1417C82.7431 20.1417 85 17.8986 85 14.8531C85 11.8079 82.7431 9.56299 79.8755 9.56299ZM79.4505 17.7107C78.4677 17.7107 77.6979 17.2036 77.2994 16.6155L77.2994 13.0359C77.6979 12.5016 78.5475 11.9407 79.4505 11.9407C81.1498 11.9407 82.451 13.0092 82.451 14.8257C82.451 16.6422 81.1501 17.7107 79.4505 17.7107ZM73.423 13.9178L73.423 19.9012L70.8735 19.9012L70.8735 14.2114C70.8735 12.5555 70.3424 11.8873 68.9094 11.8873C68.1396 11.8873 67.3427 12.2881 66.8373 12.876L66.8373 19.8749L64.2889 19.8749L64.2889 9.83069L66.3063 9.83069C66.5187 9.83069 66.6782 10.0177 66.6782 10.2048L66.6782 10.6323C67.4217 9.85742 68.404 9.56323 69.3863 9.56323C70.5018 9.56323 71.4313 9.88428 72.1749 10.5253C73.0773 11.2733 73.423 12.2347 73.423 13.9178ZM58.1009 9.56299C56.3487 9.56299 55.5253 10.6321 55.5253 10.6321L55.5253 4.99585L52.9763 4.99585L52.9763 19.8745L55.1269 19.8745C55.3394 19.8745 55.4988 19.6875 55.4988 19.5005L55.4988 19.0465C55.4988 19.0465 56.3222 20.1417 58.0743 20.1417C60.969 20.1417 63.2259 17.8986 63.2259 14.8531C63.2524 11.8075 60.9955 9.56299 58.1009 9.56299ZM57.6759 17.7107C56.6936 17.7107 55.9238 17.2036 55.5253 16.6155L55.5253 13.0359C55.9238 12.5016 56.7734 11.9407 57.6759 11.9407C59.3758 11.9407 60.6766 13.0092 60.6766 14.8257C60.6766 16.6422 59.3758 17.7107 57.6759 17.7107ZM50.7722 9.56299C51.542 9.56299 51.9404 9.69702 51.9404 9.69702L51.9404 12.0741C51.9404 12.0741 49.8161 11.3528 48.4887 12.8757L48.4887 19.901L45.9392 19.901L45.9392 9.83044L48.0903 9.83044C48.3028 9.83044 48.4616 10.0175 48.4616 10.2046L48.4616 10.6321C48.9402 10.0708 49.9758 9.56299 50.7722 9.56299ZM24.2982 18.9662C24.1656 18.6458 24.0327 18.2986 23.9001 18.0044C23.6873 17.5238 23.4748 17.0693 23.2894 16.6422L23.2629 16.6155C21.4304 12.6084 19.4658 8.54846 17.3943 4.54187L17.3147 4.38123C17.0968 3.96558 16.8845 3.547 16.6778 3.12573C16.412 2.64453 16.1467 2.13745 15.7217 1.65637C14.8721 0.587891 13.6505 0 12.3496 0C11.0216 0 9.82685 0.587891 8.95092 1.60278C8.55248 2.08337 8.26015 2.59094 7.99487 3.07202C7.78763 3.49316 7.57531 3.91174 7.35796 4.32764L7.27811 4.48828C5.23339 8.49475 3.24199 12.5551 1.40975 16.5619L1.38296 16.615C1.19727 17.043 0.984522 17.4969 0.772039 17.9772C0.639402 18.2712 0.506767 18.5918 0.37413 18.939C0.0287457 19.9271 -0.0776329 20.8622 0.0555344 21.8242C0.347599 23.8278 1.67502 25.51 3.50752 26.2585C4.19803 26.5526 4.91506 26.686 5.65835 26.686C5.87084 26.686 6.13612 26.6594 6.34886 26.6324C7.22532 26.5256 8.12804 26.2322 9.0045 25.7246C10.0932 25.11 11.1288 24.2289 12.2971 22.9467C13.4653 24.2289 14.5275 25.11 15.5896 25.7246C16.4664 26.2322 17.3688 26.5256 18.245 26.6324C18.4575 26.6597 18.7233 26.686 18.9358 26.686C19.6793 26.686 20.4226 26.5526 21.0863 26.2585C22.9454 25.51 24.2463 23.801 24.5386 21.8242C24.7495 20.8894 24.6434 19.955 24.2982 18.9662ZM12.3228 20.3552C10.8887 18.5387 9.95921 16.8292 9.64089 15.3871C9.50825 14.7726 9.48146 14.2383 9.56131 13.7574C9.6141 13.33 9.77379 12.9558 9.98627 12.6354C10.4908 11.9146 11.3405 11.4601 12.3231 11.4601C13.3059 11.4601 14.1821 11.8876 14.6601 12.6354C14.8726 12.9558 15.0318 13.3302 15.0853 13.7574C15.1647 14.2386 15.1381 14.7992 15.0055 15.3871C14.6858 16.8025 13.7563 18.5123 12.3228 20.3552ZM22.9172 21.6107C22.7316 22.9998 21.802 24.2021 20.5011 24.7365C19.864 25.0033 19.1732 25.0836 18.4832 25.0033C17.8195 24.923 17.1553 24.7092 16.4653 24.3088C15.5092 23.7742 14.5535 22.9467 13.438 21.7174C15.1904 19.5541 16.2525 17.5769 16.651 15.8143C16.8369 14.9861 16.8637 14.2383 16.7836 13.5435C16.6778 12.8757 16.4385 12.2612 16.0668 11.7269C15.2432 10.5245 13.8622 9.83044 12.3225 9.83044C10.7829 9.83044 9.40188 10.5518 8.57874 11.7269C8.20709 12.2612 7.96781 12.8757 7.86171 13.5435C7.7556 14.2383 7.78186 15.0127 7.99434 15.8143C8.39251 17.5769 9.4812 19.5804 11.2071 21.7441C10.1184 22.973 9.13581 23.8014 8.17977 24.3356C7.48926 24.7365 6.82582 24.9502 6.16211 25.0299C5.44534 25.1102 4.75457 25.0033 4.14392 24.7631C2.84302 24.2289 1.91351 23.0264 1.72782 21.6375C1.64823 20.9697 1.70102 20.3021 1.96683 19.5541C2.04614 19.2867 2.17931 19.0198 2.31194 18.6993C2.4979 18.2719 2.70985 17.8174 2.9226 17.3635L2.9494 17.3103C4.78137 13.33 6.74624 9.26978 8.79096 5.31653L8.87054 5.15588C9.08329 4.75562 9.29577 4.32812 9.50799 3.92737C9.72047 3.49976 9.95921 3.099 10.2515 2.75159C10.8091 2.11108 11.5524 1.76343 12.3758 1.76343C13.1993 1.76343 13.9425 2.11108 14.5002 2.75159C14.7925 3.09973 15.0312 3.50061 15.2437 3.92737C15.4565 4.32812 15.6689 4.75562 15.8809 5.15588L15.9607 5.31653C17.9743 9.28613 19.9131 13.2937 21.776 17.337L21.776 17.3638C21.9888 17.7917 22.1745 18.2721 22.387 18.7002C22.5196 19.0201 22.6525 19.287 22.7321 19.5543C22.944 20.2482 23.0236 20.9164 22.9172 21.6107Z" fill="#718087" fill-opacity="1.000000" fill-rule="nonzero"/>
</svg>
