<svg width="75.000000" height="16.000000" viewBox="0 0 75 16" fill="none" xmlns="http://www.w3.org/2000/svg" xmlns:xlink="http://www.w3.org/1999/xlink">
	<desc>
			Created with Pixso.
	</desc>
	<defs/>
	<path id="Vector" d="M12.175 0L15.0595 0L15.0595 9.35229C15.0595 14.2729 11.9838 16 7.52176 16C3.07564 16 0 14.2729 0 9.35229L0 0.374756C0 0.114014 0.127487 0 0.382462 0L3.26687 0L3.26687 9.20569C3.26687 12.1548 4.54174 13.3768 7.52176 13.3768C10.5177 13.3768 11.7926 12.1548 11.7926 9.20569L11.7926 0.374756C11.7926 0.114014 11.9201 0 12.175 0ZM44.8278 2.55811L44.8278 6.50098L52.1264 6.50098C52.2539 6.50098 52.3017 6.56616 52.2539 6.69653L51.4571 8.71692C51.3774 8.89612 51.2659 8.97754 51.0269 8.97754L46.7401 8.97754C45.3377 8.97754 44.8278 9.41748 44.8278 10.3788L44.8278 13.1649L54.7081 13.1649C54.8355 13.1649 54.8833 13.2301 54.8355 13.3605L54.0069 15.4623C53.9272 15.6416 53.8156 15.723 53.5766 15.723L42.7561 15.723C41.9274 15.723 41.6087 15.4297 41.6087 14.7943L41.6087 1.09167C41.6087 0.325806 42.0231 0 43.1067 0L54.7081 0C54.8355 0 54.8833 0.0651855 54.8355 0.179199L54.0069 2.29736C53.9272 2.47656 53.8156 2.55811 53.5766 2.55811L44.8278 2.55811ZM35.6646 11.3727C35.6646 14.5173 33.4973 15.723 30.4536 15.723L22.39 15.723C21.5454 15.723 21.2426 15.4297 21.2426 14.7943L21.2426 1.09167C21.2426 0.325806 21.641 0 22.7406 0L29.2902 0C32.1587 0 34.9316 0.505127 34.9316 3.99182C34.9316 5.49084 34.4057 6.76172 33.1467 7.42969C34.8838 7.90222 35.6646 9.49902 35.6646 11.3727ZM24.4138 6.54993L29.5293 6.54993C31.2185 6.54993 31.6966 5.88184 31.6966 4.51318C31.6966 3.14465 31.2185 2.49292 29.5293 2.49292L24.4138 2.49292L24.4138 6.54993ZM32.4296 11.0795C32.4296 9.62927 31.9356 8.91248 30.1189 8.91248L26.3421 8.91248C24.9397 8.91248 24.4138 9.35229 24.4138 10.3136L24.4138 13.2301L30.1189 13.2301C31.9356 13.2301 32.4296 12.5132 32.4296 11.0795ZM74.8192 15.723L71.887 15.723C71.6479 15.723 71.5523 15.6252 71.4567 15.4623L68.3492 9.72705L65.4967 9.72705C64.0943 9.72705 63.5684 10.167 63.5684 11.1283L63.5684 15.723L60.7637 15.723C60.5087 15.723 60.3813 15.5927 60.3813 15.3483L60.3813 1.09167C60.3813 0.325806 60.7956 0 61.8792 0L68.4608 0C72.3013 0 74.612 1.02649 74.612 4.83911C74.612 7.78821 73.2256 8.94507 71.5045 9.40125L74.9626 15.446C75.0264 15.5438 75.0264 15.723 74.8192 15.723ZM71.377 4.9043C71.377 3.3075 70.9468 2.52551 68.9388 2.52551L63.5684 2.52551L63.5684 7.28308L68.9388 7.28308C70.9468 7.28308 71.377 6.51733 71.377 4.9043Z" fill="#718087" fill-opacity="1.000000" fill-rule="nonzero"/>
</svg>
