<svg width="27.004089" height="27.004028" viewBox="0 0 27.0041 27.004" fill="none" xmlns="http://www.w3.org/2000/svg" xmlns:xlink="http://www.w3.org/1999/xlink">
	<desc>
			Created with Pixso.
	</desc>
	<defs/>
	<path id="Icon" d="M25.2929 26.7072L17.9653 19.3795L19.3795 17.9653L26.7071 25.2928L25.2929 26.7072ZM11.3448 22.6897Q6.64563 22.6897 3.32281 19.3668Q0 16.0439 0 11.3448Q0 6.64563 3.32281 3.32288Q6.64563 0 11.3448 0Q16.044 0 19.3668 3.32288Q22.6896 6.64563 22.6896 11.3448Q22.6896 16.0441 19.3668 19.3668Q16.044 22.6897 11.3448 22.6897ZM11.3448 20.6897Q15.2156 20.6897 17.9526 17.9526Q20.6896 15.2156 20.6896 11.3448Q20.6896 7.47412 17.9526 4.73706Q15.2156 2 11.3448 2Q7.47406 2 4.73706 4.73706Q2 7.47412 2 11.3448Q2 15.2156 4.73706 17.9526Q7.47406 20.6897 11.3448 20.6897ZM26.6788 25.2928L26.7071 25.2928C27.1031 25.6888 27.1031 26.3112 26.7071 26.7072C26.3112 27.103 25.6888 27.103 25.2929 26.7072L25.2929 26.6788L26.6788 25.2928Z" fill="#FFFFFF" fill-opacity="1.000000" fill-rule="evenodd"/>
</svg>
