<svg width="25.000000" height="25.000000" viewBox="0 0 25 25" fill="none" xmlns="http://www.w3.org/2000/svg" xmlns:xlink="http://www.w3.org/1999/xlink">
	<desc>
			Created with Pixso.
	</desc>
	<defs/>
	<path id="Icon" d="M6.93735 23.4923L5.41882 25L0 19.7577L3.88235 15.9312C4.66858 15.1505 5.66071 14.6058 6.74472 14.36C7.8287 14.114 8.9606 14.1766 10.0103 14.5408L10.8634 14.8368L16.0972 14.8368C16.3185 14.8367 16.5377 14.8807 16.7415 14.9663C16.9454 15.0519 17.1299 15.1772 17.284 15.3351C17.4381 15.4928 17.5587 15.6797 17.6386 15.8846C17.7186 16.0896 17.7562 16.3083 17.7493 16.5281C17.7242 16.9623 17.5311 17.37 17.2103 17.6661C16.8895 17.9624 16.4658 18.124 16.0278 18.1173L12.888 18.1173C12.7177 18.1173 12.5543 18.1846 12.4338 18.3042C12.3134 18.4237 12.2457 18.5859 12.2457 18.7551C12.2457 18.9242 12.3134 19.0864 12.4338 19.2061C12.5543 19.3257 12.7177 19.3928 12.888 19.3928L16.0381 19.3928C16.8065 19.3966 17.5469 19.1068 18.106 18.5835C18.6652 18.0602 19.0002 17.3434 19.0417 16.5817C19.0417 16.5688 19.0417 16.5562 19.0417 16.5408L21.9554 13.2832C22.2514 12.9421 22.6683 12.7275 23.1195 12.6838C23.5707 12.6401 24.0216 12.7708 24.3783 13.0485C24.5549 13.1936 24.7003 13.3724 24.8062 13.5742C24.912 13.7761 24.976 13.9971 24.9944 14.2239C25.0129 14.4507 24.9854 14.679 24.9135 14.895C24.8417 15.1111 24.727 15.3108 24.5762 15.4822L18.7591 22.1147C18.3751 22.5518 17.9012 22.9017 17.3693 23.1411C16.8373 23.3805 16.2599 23.5038 15.6758 23.5026L6.93735 23.4923ZM18.9492 9.07141C18.9492 8.75 18.8206 8.44189 18.5918 8.2146C18.3629 7.9873 18.0525 7.85974 17.7288 7.85974L15.9302 7.85974L15.9302 6.07397C15.9158 5.76257 15.7811 5.46863 15.554 5.2533C15.3269 5.03796 15.025 4.91785 14.711 4.91785C14.397 4.91785 14.0951 5.03796 13.868 5.2533C13.641 5.46863 13.5063 5.76257 13.4919 6.07397L13.4919 7.85974L11.6933 7.85974C11.5285 7.85217 11.3638 7.87793 11.2093 7.9353C11.0548 7.9928 10.9136 8.08081 10.7943 8.19385C10.675 8.30701 10.58 8.44299 10.5152 8.59363C10.4503 8.74426 10.4168 8.90637 10.4168 9.07019C10.4168 9.23401 10.4503 9.39612 10.5152 9.54663C10.58 9.69727 10.675 9.83325 10.7943 9.94641C10.9136 10.0596 11.0548 10.1475 11.2093 10.205C11.3638 10.2623 11.5285 10.2881 11.6933 10.2806L13.4919 10.2806L13.4919 12.0663C13.5063 12.3777 13.641 12.6716 13.868 12.887C14.0951 13.1023 14.397 13.2225 14.711 13.2225C15.025 13.2225 15.3269 13.1023 15.554 12.887C15.7811 12.6716 15.9158 12.3777 15.9302 12.0663L15.9302 10.2806L17.7288 10.2806C18.052 10.2806 18.3621 10.1533 18.5909 9.92664C18.8197 9.69995 18.9485 9.39233 18.9492 9.07141ZM7.24823 2.35718L7.24823 3.67346L5.92502 3.67346C5.68649 3.67346 5.45776 3.76758 5.28912 3.93494C5.12045 4.10242 5.02573 4.32947 5.02573 4.56628C5.02573 4.8031 5.12045 5.03027 5.28912 5.19763C5.45776 5.36511 5.68649 5.45923 5.92502 5.45923L7.25079 5.45923L7.25079 6.77551C7.25079 7.01233 7.34555 7.23938 7.51419 7.40686C7.68286 7.57434 7.91159 7.66833 8.15009 7.66833C8.38861 7.66833 8.61734 7.57434 8.78598 7.40686C8.95462 7.23938 9.04938 7.01233 9.04938 6.77551L9.04938 5.4541L10.3675 5.4541C10.606 5.4541 10.8347 5.35999 11.0034 5.19263C11.172 5.02515 11.2668 4.79797 11.2668 4.56128C11.2668 4.32446 11.172 4.09729 11.0034 3.92993C10.8347 3.76245 10.606 3.66833 10.3675 3.66833L9.04166 3.66833L9.04166 2.35718C9.04166 2.12036 8.94693 1.89319 8.77829 1.72583C8.60962 1.55835 8.38089 1.46423 8.1424 1.46423C7.90387 1.46423 7.67514 1.55835 7.5065 1.72583C7.33786 1.89319 7.2431 2.12036 7.2431 2.35718L7.24823 2.35718ZM18.5921 0C18.3876 0 18.1916 0.0806885 18.047 0.224121C17.9025 0.367676 17.8213 0.562378 17.8213 0.765259L17.8213 1.89795L16.6805 1.89795C16.476 1.89795 16.28 1.97864 16.1354 2.12207C15.9908 2.26562 15.9096 2.46033 15.9096 2.66321C15.9096 2.86621 15.9908 3.06091 16.1354 3.20447C16.28 3.3479 16.476 3.42859 16.6805 3.42859L17.8213 3.42859L17.8213 4.56128C17.8213 4.76416 17.9025 4.95886 18.047 5.10242C18.1916 5.24585 18.3876 5.32654 18.5921 5.32654C18.7965 5.32654 18.9926 5.24585 19.1371 5.10242C19.2817 4.95886 19.3629 4.76416 19.3629 4.56128L19.3629 3.42859L20.5037 3.42859C20.6049 3.42859 20.7052 3.40881 20.7987 3.37036C20.8922 3.33191 20.9772 3.27551 21.0488 3.20447C21.1203 3.1333 21.1771 3.04895 21.2159 2.95618C21.2546 2.86328 21.2745 2.76379 21.2745 2.66321C21.2745 2.56274 21.2546 2.46326 21.2159 2.37036C21.1771 2.27759 21.1203 2.19324 21.0488 2.12207C20.9772 2.05103 20.8922 1.99463 20.7987 1.95618C20.7052 1.91772 20.6049 1.89795 20.5037 1.89795L19.3629 1.89795L19.3629 0.765259C19.3629 0.562378 19.2817 0.367676 19.1371 0.224121C18.9926 0.0806885 18.7965 0 18.5921 0Z" fill="#FFFFFF" fill-opacity="1.000000" fill-rule="nonzero"/>
</svg>
