<svg width="21.000000" height="25.000000" viewBox="0 0 21 25" fill="none" xmlns="http://www.w3.org/2000/svg" xmlns:xlink="http://www.w3.org/1999/xlink">
	<desc>
			Created with Pixso.
	</desc>
	<defs/>
	<path id="Icon" d="M4.08147 0L19.9528 0L16.8902 3.36975L1.02967 3.36975L4.08147 0ZM18.0172 23.7845L21 20.4907L21 1.19373L18.0172 4.47583L18.0172 23.7845ZM16.4786 4.9939L16.4786 25L12.6499 25L12.6499 23.8131C12.6499 22.3207 11.4715 21.1042 10.0524 21.1042L6.4259 21.1042C5.00866 21.1042 3.8383 22.3207 3.8383 23.8131L3.8383 25L0 25L0 4.9939L16.4786 4.9939ZM6.6186 9.92432C6.57981 10.0227 6.56073 10.1327 6.56073 10.2389L6.56073 11.9432C6.56073 12.0494 6.58012 12.1494 6.6186 12.2474C6.65708 12.3458 6.71095 12.4364 6.78205 12.5114C6.85347 12.5863 6.93935 12.6532 7.03232 12.6938C7.12528 12.7347 7.22994 12.7549 7.3306 12.7549L8.95624 12.7549C9.0569 12.7549 9.16156 12.7344 9.25452 12.6938C9.3478 12.6532 9.43368 12.5863 9.50479 12.5114C9.5759 12.436 9.62977 12.3455 9.66824 12.2474C9.70703 12.1494 9.72612 12.0494 9.72612 11.9432L9.72612 10.2389C9.72612 10.1323 9.70673 10.0223 9.66824 9.92432C9.62977 9.82593 9.5759 9.73535 9.50479 9.6604C9.43337 9.58533 9.34749 9.52856 9.25452 9.48792C9.16125 9.44739 9.0569 9.42725 8.95624 9.42725L7.3306 9.42725C7.22994 9.42725 7.12528 9.44739 7.03232 9.48792C6.93905 9.52856 6.85347 9.58533 6.78205 9.6604C6.71095 9.73572 6.65708 9.82629 6.6186 9.92432ZM4.49244 12.5519C4.53091 12.4536 4.55 12.3435 4.55 12.2373L4.55 10.3301C4.55 10.2236 4.53091 10.1237 4.49244 10.0255C4.45396 9.92725 4.40009 9.83667 4.32898 9.7616C4.25756 9.68628 4.17168 9.61938 4.07871 9.57886C3.98544 9.53796 3.88109 9.51782 3.78043 9.51782L1.9624 9.51782C1.86174 9.51782 1.75739 9.53833 1.66412 9.57886C1.57115 9.61975 1.48527 9.68665 1.41416 9.7616C1.34305 9.83691 1.28918 9.92749 1.2507 10.0255C1.21192 10.1239 1.19283 10.2239 1.19283 10.3301L1.19283 12.2373C1.19283 12.3435 1.21222 12.4539 1.2507 12.5519C1.28918 12.65 1.34274 12.7406 1.41416 12.8156C1.48527 12.8905 1.57115 12.9474 1.66412 12.9879C1.75739 13.0288 1.86174 13.049 1.9624 13.049L3.78043 13.049C3.8814 13.049 3.98575 13.0286 4.07871 12.9879C4.17199 12.9474 4.25787 12.8909 4.32898 12.8156C4.40009 12.7406 4.45396 12.65 4.49244 12.5519ZM11.9862 10.0255C11.9474 10.1239 11.9283 10.2239 11.9283 10.3301L11.9283 12.2373C11.9283 12.3435 11.9477 12.4539 11.9862 12.5519C12.0247 12.65 12.0782 12.7406 12.1496 12.8156C12.2207 12.8905 12.3066 12.9474 12.3996 12.9879C12.4929 13.0288 12.5972 13.049 12.6979 13.049L14.5159 13.049C14.6166 13.049 14.7212 13.0286 14.8142 12.9879C14.9075 12.9474 14.9934 12.8909 15.0645 12.8156C15.1356 12.7406 15.1894 12.65 15.2279 12.5519C15.2664 12.4536 15.2855 12.3435 15.2855 12.2373L15.2855 10.3301C15.2855 10.2236 15.2664 10.1237 15.2279 10.0255C15.1894 9.92725 15.1356 9.83667 15.0645 9.7616C14.993 9.68628 14.9072 9.61938 14.8142 9.57886C14.7209 9.53796 14.6166 9.51782 14.5159 9.51782L12.6979 9.51782C12.5972 9.51782 12.4929 9.53833 12.3996 9.57886C12.3066 9.61975 12.2207 9.68665 12.1496 9.7616C12.0785 9.83691 12.0247 9.92749 11.9862 10.0255ZM9.71565 17.9088C9.75444 17.8104 9.77352 17.7104 9.77352 17.6044L9.77352 15.8494C9.77352 15.7432 9.75413 15.6331 9.71565 15.5348C9.67717 15.4366 9.62361 15.3461 9.5522 15.2711C9.48109 15.1962 9.3952 15.1393 9.30224 15.0988C9.20897 15.0579 9.10461 15.0377 9.00395 15.0377L7.32999 15.0377C7.22933 15.0377 7.12467 15.0582 7.0317 15.0988C6.93843 15.1393 6.85286 15.1962 6.78144 15.2711C6.71033 15.3461 6.65646 15.4366 6.61798 15.5348C6.5792 15.6331 6.56011 15.7432 6.56011 15.8494L6.56011 17.6044C6.56011 17.7108 6.57951 17.8108 6.61798 17.9088C6.65646 18.0068 6.71033 18.0974 6.78144 18.1725C6.85286 18.2478 6.93874 18.3147 7.0317 18.3552C7.12467 18.3958 7.22933 18.4159 7.32999 18.4159L9.00395 18.4159C9.10461 18.4159 9.20897 18.3958 9.30224 18.3552C9.3952 18.3143 9.48109 18.2478 9.5522 18.1725C9.6233 18.0974 9.67717 18.0068 9.71565 17.9088ZM4.49244 18.1624C4.53091 18.0643 4.55 17.954 4.55 17.8478L4.55 15.9506C4.55 15.8441 4.53091 15.7341 4.49244 15.636C4.45396 15.5377 4.40009 15.4474 4.32898 15.3721C4.25756 15.2971 4.17168 15.2402 4.07871 15.1997C3.98544 15.1588 3.88109 15.1387 3.78043 15.1387L1.9624 15.1387C1.86174 15.1387 1.75739 15.1592 1.66412 15.1997C1.57115 15.2402 1.48527 15.2971 1.41416 15.3721C1.34305 15.4474 1.28918 15.538 1.2507 15.636C1.21192 15.7344 1.19283 15.8445 1.19283 15.9506L1.19283 17.8478C1.19283 17.9543 1.21222 18.0643 1.2507 18.1624C1.28918 18.2607 1.34274 18.3513 1.41416 18.4263C1.48527 18.5013 1.57115 18.5581 1.66412 18.5988C1.75739 18.6393 1.86174 18.6594 1.9624 18.6594L3.78043 18.6594C3.8814 18.6594 3.98575 18.6393 4.07871 18.5988C4.17199 18.5581 4.25787 18.5013 4.32898 18.4263C4.40009 18.351 4.45396 18.2604 4.49244 18.1624ZM12.1499 18.426C12.2211 18.501 12.3069 18.5579 12.3999 18.5984C12.4929 18.6389 12.5972 18.6594 12.6979 18.6594L14.5162 18.6594C14.6169 18.6594 14.7215 18.6393 14.8145 18.5988C14.9078 18.5581 14.9937 18.5013 15.0648 18.4263C15.1359 18.351 15.1897 18.2604 15.2282 18.1624C15.2667 18.0643 15.2858 17.954 15.2858 17.8478L15.2858 15.9506C15.2858 15.8441 15.2667 15.7341 15.2282 15.636C15.1897 15.5377 15.1359 15.4474 15.0648 15.3721C14.9934 15.2971 14.9075 15.2402 14.8145 15.1997C14.7212 15.1588 14.6169 15.1387 14.5162 15.1387L12.6982 15.1387C12.5975 15.1387 12.4932 15.1592 12.3999 15.1997C12.3069 15.2402 12.2211 15.2971 12.1499 15.3721C12.0788 15.4474 12.025 15.538 11.9865 15.636C11.9477 15.7344 11.9286 15.8445 11.9286 15.9506L11.9286 17.8475C11.9286 17.954 11.948 18.064 11.9865 18.1621C12.025 18.2604 12.0785 18.351 12.1499 18.426ZM5.37466 23.8147C5.37466 23.2164 5.84071 22.724 6.42435 22.724L10.0536 22.724C10.6416 22.724 11.1064 23.2164 11.1064 23.8147L11.1064 24.9974L5.37466 24.9974L5.37466 23.8147Z" fill="#FFFFFF" fill-opacity="1.000000" fill-rule="evenodd"/>
</svg>
